<svg width="703" height="655" viewBox="0 0 703 655" fill="none" xmlns="http://www.w3.org/2000/svg">
<path d="M332.597 12.38L332.599 12.3782C337.353 8.05145 343.438 5.47015 349.853 5.05825C356.217 4.64967 362.531 6.39978 367.774 10.0229L370.853 12.486L695.83 307.914C699.212 310.988 697.037 316.614 692.467 316.614H618.333H613.333V321.614V621.614C613.332 628.553 610.785 635.251 606.173 640.437C601.592 645.588 595.292 648.892 588.453 649.731L584.85 649.947H386.376C382.449 649.947 380.054 645.627 382.136 642.297L451.348 531.558C455.279 525.267 454.022 517.047 448.389 512.219L347.719 425.93C345.29 423.848 345.414 420.053 347.973 418.134L463.072 331.81C469.87 326.711 470.029 316.567 463.393 311.258L392.705 254.708C391.291 253.576 390.599 251.768 390.897 249.981L405.06 165.003C406.339 157.326 397.015 152.528 391.512 158.031L302.081 247.461C297.867 251.676 298.251 258.618 302.905 262.341L372.892 318.331C374.525 319.637 374.354 322.17 372.562 323.246L227.142 410.497C218.591 415.628 217.334 427.521 224.625 434.325L332.63 535.13C334.645 537.01 334.758 540.167 332.882 542.187L234.303 648.349C233.357 649.368 232.03 649.947 230.639 649.947H118.333C111.394 649.946 104.696 647.398 99.5101 642.787C94.3585 638.206 91.0549 631.905 90.2155 625.065L90 621.464V321.614V316.614H85H10.8664C6.29625 316.614 4.12142 310.988 7.50311 307.914L332.597 12.38Z" fill="url(#paint0_linear_102_5)" stroke="white" stroke-width="10"/>
<defs>
<linearGradient id="paint0_linear_102_5" x1="254.5" y1="81" x2="417" y2="645" gradientUnits="userSpaceOnUse">
<stop stop-color="#00C0FF"/>
<stop offset="1" stop-color="#A465FD"/>
</linearGradient>
</defs>
</svg>
